<?xml version="1.0" encoding="UTF-8" standalone="no"?>
<!DOCTYPE svg PUBLIC "-//W3C//DTD SVG 1.1//EN" "http://www.w3.org/Graphics/SVG/1.1/DTD/svg11.dtd">
<svg width="100%" height="100%" viewBox="0 0 1165 560" version="1.1" xmlns="http://www.w3.org/2000/svg" xmlns:xlink="http://www.w3.org/1999/xlink" xml:space="preserve" xmlns:serif="http://www.serif.com/" style="fill-rule:evenodd;clip-rule:evenodd;stroke-linejoin:round;stroke-miterlimit:2;">
    <g transform="matrix(1,0,0,1,-0.00906471,0.00408442)">
        <g id="Background">
            <g transform="matrix(1,0,0,1,-382.95,-254.96)">
                <path d="M769.43,680C768.23,677.28 769.1,675.25 771.16,673.18C795.03,649.13 819.16,625.28 843.16,601.36C844.168,600.551 844.982,599.526 845.54,598.36C846.1,598.42 846.42,598.03 846.75,597.7C851.89,592.7 857.06,587.7 862.13,582.54C865.56,579.07 866.4,572.29 864.13,567.98C863.53,566.85 862.89,565.73 862.23,564.64C859.847,560.475 856.895,556.661 853.46,553.31C846.46,546.72 839.7,539.92 832.85,533.2L792.09,493.2C791.432,492.503 790.716,491.864 789.95,491.29C781.602,485.359 772.813,480.074 763.66,475.48C759.99,473.71 756.19,472.21 752.54,470.4C732.1,460.31 711.89,449.77 691.67,439.26C677.003,431.62 662.337,423.97 647.67,416.31C626.61,405.31 605.563,394.31 584.53,383.31C571.623,376.61 558.78,369.893 546,363.16C520.08,349.56 494.167,335.953 468.26,322.34C457.07,316.46 445.93,310.5 434.72,304.68C427.13,300.74 419.72,296.41 411.72,293.24C409.356,292.255 407.076,291.081 404.9,289.73C402.877,288.566 401.162,286.933 399.9,284.97C395.32,277.83 391.06,270.5 386.61,263.29C385.323,261.454 384.685,259.239 384.8,257C386.02,255 387.13,254.56 389.38,255.28C394.18,256.82 398.95,258.42 403.74,259.98L505,293L644.52,338.48L727.28,365.48L744.62,371C745.14,371.17 745.69,371.27 746.23,371.4C746.917,373.189 747.813,374.891 748.9,376.47C751.17,379.57 753.41,382.69 755.58,385.85C756.961,387.813 758.58,389.596 760.4,391.16C761.4,392.01 762.33,392.85 763.23,393.75C835.33,465.45 907.42,537.147 979.5,608.84C982,611.32 984.64,613.65 987.31,615.94C989.037,617.521 991.083,618.715 993.31,619.44C997.365,620.677 1001.57,621.35 1005.81,621.44C1033.88,621.787 1061.96,622.097 1090.03,622.37C1091.79,622.378 1093.54,622.609 1095.24,623.06C1097.79,623.73 1100.3,624.55 1102.78,625.45C1106.46,626.82 1109.77,629.016 1112.46,631.87C1124.57,644.29 1136.61,656.81 1148.7,669.25C1152.9,673.56 1157.82,675.9 1164.09,675.62C1181.75,674.83 1199.42,674.32 1217.09,673.69C1220.77,673.56 1224.44,673.44 1228.09,673.29C1232.56,673.1 1235.03,670.57 1234.94,666.16C1234.81,660.09 1234.59,654.02 1234.44,647.95C1234.38,645.55 1234.32,643.15 1234.44,640.75C1234.54,637.45 1236.16,635.58 1239.38,634.91C1240.55,634.644 1241.74,634.497 1242.94,634.47C1251.26,634.42 1259.57,634.03 1267.86,633.4C1270.61,633.034 1273.32,634.427 1274.62,636.88C1275.62,638.43 1276.5,640.06 1277.62,641.49C1284.97,650.77 1292.54,659.87 1299.69,669.3C1300.36,670.19 1301.17,670.98 1301.86,671.87C1302.62,672.914 1303.89,673.466 1305.17,673.31C1309.24,673.09 1313.32,673 1317.4,672.84C1326.75,672.48 1336.09,672.09 1345.4,671.76C1346.37,671.814 1347.3,671.349 1347.84,670.54C1348.19,670.02 1348.57,669.54 1348.94,668.98C1349.69,667.928 1350.9,667.302 1352.2,667.302C1353.28,667.302 1354.33,667.746 1355.08,668.53C1356.75,670.467 1358.31,672.5 1359.75,674.62C1360.44,675.55 1360.19,675.97 1358.97,676.1C1358.41,676.16 1357.85,676.1 1357.29,676.16L1340.29,676.83C1318.47,677.717 1296.65,678.6 1274.83,679.48C1256.16,680.233 1237.46,680.97 1218.73,681.69C1197.15,682.537 1175.57,683.397 1153.99,684.27C1135.61,684.99 1117.23,685.7 1098.84,686.4C1072.39,687.433 1045.93,688.48 1019.48,689.54C996.86,690.433 974.24,691.307 951.62,692.16L860.27,695.76C844.84,696.37 829.42,697.01 813.99,697.55C808.99,697.72 804.1,698.3 799.13,697.78C794.16,697.26 789.62,695.86 785.72,692.56C783.839,690.831 781.765,689.325 779.54,688.07C777.173,685.995 774.649,684.106 771.99,682.42C771.008,681.762 770.142,680.944 769.43,680ZM931.6,664.14C931.001,664.162 930.403,664.216 929.81,664.3C927.72,664.76 926.92,666.3 927.7,668.3C927.861,668.75 928.087,669.175 928.37,669.56C930.68,672.589 934.198,674.467 938,674.7C938.721,674.772 939.448,674.655 940.11,674.36C941.394,673.964 942.131,672.589 941.75,671.3C941.619,670.587 941.313,669.917 940.86,669.35C938.623,666.415 935.27,664.529 931.6,664.14ZM957.26,663.46C955.83,663.55 954.65,663.56 953.99,664.68C953.409,665.772 953.582,667.12 954.42,668.03C956.641,671.22 960.184,673.246 964.06,673.54C965.214,673.773 966.402,673.287 967.06,672.31C967.624,671.302 967.504,670.043 966.76,669.16C964.625,665.918 961.125,663.819 957.26,663.46ZM930.26,645.4C929.86,645.375 929.46,645.375 929.06,645.4C926.86,645.68 926.06,647.15 927,649.14C927.283,649.712 927.65,650.238 928.09,650.7C930.189,652.917 932.999,654.332 936.03,654.7C936.744,654.794 937.469,654.757 938.17,654.59C940.01,654.16 940.62,652.94 939.85,651.18C939.671,650.737 939.429,650.323 939.13,649.95C936.911,647.303 933.714,645.662 930.27,645.4L930.26,645.4ZM988.52,672.4C990.11,672.47 991.14,672.33 991.76,671.31C992.245,670.351 992.077,669.183 991.34,668.4C989.198,665.254 985.767,663.216 981.98,662.84C980.931,662.598 979.836,663.033 979.24,663.93C978.783,664.901 978.948,666.057 979.66,666.86C981.72,669.847 984.938,671.839 988.53,672.35L988.52,672.4ZM956.17,645.48C954.6,645.48 953.52,645.56 952.93,646.58C952.449,647.547 952.643,648.72 953.41,649.48C955.575,652.421 958.919,654.274 962.56,654.55C963.612,654.774 964.7,654.333 965.3,653.44C965.95,652.37 965.42,651.44 964.81,650.56C962.761,647.739 959.638,645.882 956.18,645.43L956.17,645.48ZM1011.17,671.38C1012.59,671.38 1013.58,671.38 1014.17,670.38C1014.57,669.564 1014.45,668.583 1013.86,667.89C1011.78,664.702 1008.37,662.617 1004.59,662.22C1003.71,661.984 1002.77,662.315 1002.24,663.05C1001.77,663.922 1001.9,665.003 1002.56,665.74C1004.57,668.68 1007.68,670.694 1011.19,671.33L1011.17,671.38ZM985.54,654.22C986.91,654.22 987.91,654.22 988.44,653.22C988.781,652.385 988.592,651.423 987.96,650.78C985.853,647.832 982.567,645.937 978.96,645.59C977.993,645.361 976.984,645.798 976.49,646.66C976.184,647.471 976.384,648.39 977,649C978.995,651.853 982.107,653.732 985.56,654.17L985.54,654.22ZM1026.27,661.68C1025.14,661.74 1024.17,661.54 1023.65,662.49C1023.28,663.317 1023.45,664.294 1024.09,664.94C1026.15,667.932 1029.37,669.923 1032.97,670.42C1035.09,670.73 1036.03,669.29 1034.91,667.42C1033.01,664.339 1029.86,662.226 1026.29,661.63L1026.27,661.68ZM1007.86,654C1010.06,653.94 1010.86,652.75 1009.92,651.19C1007.94,647.942 1004.5,645.859 1000.7,645.62C998.7,645.44 997.92,646.89 999.04,648.62C1001.07,651.598 1004.28,653.56 1007.86,654Z" style="fill:rgb(1,1,1);fill-rule:nonzero;"/>
            </g>
            <g transform="matrix(1,0,0,1,-382.95,-254.96)">
                <path d="M779.51,688.08C781.735,689.335 783.809,690.841 785.69,692.57C789.59,695.87 794.15,697.27 799.1,697.79C804.05,698.31 809.01,697.73 813.96,697.56C829.39,697.02 844.81,696.38 860.24,695.77L951.59,692.17C974.21,691.29 996.83,690.417 1019.45,689.55C1045.9,688.51 1072.35,687.463 1098.81,686.41C1117.19,685.677 1135.57,684.967 1153.96,684.28C1175.54,683.427 1197.12,682.567 1218.7,681.7C1237.37,680.96 1256.07,680.223 1274.8,679.49C1296.62,678.617 1318.44,677.733 1340.26,676.84L1357.26,676.17C1357.82,676.17 1358.38,676.17 1358.94,676.11C1360.16,675.98 1360.41,675.56 1359.72,674.63C1358.28,672.51 1356.72,670.477 1355.05,668.54C1354.3,667.756 1353.25,667.312 1352.17,667.312C1350.88,667.312 1349.66,667.938 1348.91,668.99C1348.54,669.51 1348.16,669.99 1347.81,670.55C1347.27,671.359 1346.34,671.824 1345.37,671.77C1336.02,672.1 1326.68,672.49 1317.37,672.85C1313.29,673.01 1309.21,673.1 1305.14,673.32C1303.86,673.476 1302.59,672.924 1301.83,671.88C1301.14,670.99 1300.33,670.2 1299.66,669.31C1292.51,659.88 1284.94,650.78 1277.59,641.5C1276.46,640.07 1275.59,638.44 1274.59,636.89C1273.29,634.437 1270.58,633.044 1267.83,633.41C1259.54,634.04 1251.23,634.41 1242.91,634.48C1241.71,634.507 1240.52,634.654 1239.35,634.92C1236.13,635.59 1234.51,637.46 1234.41,640.76C1234.33,643.16 1234.41,645.56 1234.41,647.96C1234.56,654.03 1234.78,660.1 1234.91,666.17C1235,670.58 1232.53,673.11 1228.06,673.3C1224.38,673.45 1220.71,673.57 1217.06,673.7C1199.4,674.33 1181.73,674.84 1164.06,675.63C1157.79,675.91 1152.87,673.57 1148.67,669.26C1136.58,656.82 1124.54,644.26 1112.43,631.88C1109.74,629.026 1106.43,626.83 1102.75,625.46C1100.27,624.56 1097.75,623.74 1095.21,623.07C1093.51,622.619 1091.76,622.388 1090,622.38C1061.93,622.093 1033.86,621.783 1005.78,621.45C1001.54,621.36 997.335,620.687 993.28,619.45C991.053,618.725 989.007,617.531 987.28,615.95C984.61,613.66 981.97,611.33 979.47,608.85C907.41,537.15 835.33,465.46 763.23,393.78C762.33,392.88 761.36,392.04 760.4,391.19C758.58,389.626 756.961,387.843 755.58,385.88C753.41,382.72 751.17,379.6 748.9,376.5C747.813,374.921 746.917,373.219 746.23,371.43C745.94,369.3 745.7,367.16 745.34,365.04C744.878,362.5 745.291,359.876 746.51,357.6C749.12,352.72 751.94,347.99 756.62,344.68C757.523,344.033 758.496,343.489 759.52,343.06L826.32,315.69C833.2,312.87 840.073,310.04 846.94,307.2C848.867,306.4 850.924,305.959 853.01,305.9C858.121,305.591 863.249,306.08 868.21,307.35C870.759,308.017 873.061,309.407 874.84,311.35C881.45,318.52 888.35,325.43 895.1,332.48C909.833,347.813 924.55,363.18 939.25,378.58L969.1,409.79C980.333,421.523 991.557,433.253 1002.77,444.98C1004.61,446.998 1006.95,448.498 1009.55,449.33C1010.77,449.754 1012.09,449.754 1013.31,449.33C1020.74,446.61 1028.25,444.1 1035.31,440.51C1036.04,440.205 1036.71,439.786 1037.31,439.27C1038.35,438.464 1038.8,437.097 1038.44,435.83C1036.92,431 1038.81,427.34 1042.21,424.02C1045.35,420.941 1049.13,418.583 1053.27,417.11C1069.93,411 1086.53,404.73 1103.13,398.46C1105.97,397.378 1108.95,396.705 1111.98,396.46C1114.81,396.255 1117.61,397.116 1119.83,398.87C1123.18,401.206 1126.18,404.019 1128.72,407.22C1138.72,420.57 1149.89,432.88 1160.72,445.45C1173.86,460.63 1187.01,475.793 1200.18,490.94C1200.91,491.79 1201.67,492.61 1202.43,493.44C1203.65,494.999 1205.8,495.522 1207.6,494.7C1214.93,491.94 1222.29,489.26 1229.66,486.59C1232.32,485.495 1235.05,484.587 1237.83,483.87C1240.89,483.104 1244.13,483.715 1246.7,485.54C1250.53,488.026 1253.83,491.249 1256.4,495.02C1266.5,510.32 1277.91,524.66 1288.79,539.38C1289.65,540.54 1290.48,541.72 1291.39,542.83C1293.71,545.62 1295.88,546.17 1299.26,544.83C1304.98,542.57 1310.7,540.28 1316.42,538.01C1317.42,537.6 1318.51,537.22 1319.56,536.84C1321.84,535.918 1324.44,536.249 1326.41,537.71C1330.88,540.95 1335.11,544.36 1338.24,549.12C1342.36,555.39 1346.98,561.35 1351.44,567.39C1352.1,568.28 1352.44,569.39 1353.34,570.09L1363.34,583.88L1410.34,648.72C1412.12,651.18 1413.99,653.55 1415.04,656.47C1415.51,657.646 1415.6,658.941 1415.29,660.17C1414.38,663.73 1413.53,667.31 1412.69,670.88C1412.59,671.127 1412.54,671.39 1412.54,671.655C1412.54,672.823 1413.51,673.785 1414.67,673.785C1414.72,673.785 1414.77,673.783 1414.82,673.78C1415.46,673.815 1416.1,673.815 1416.74,673.78L1461.8,671.92C1462.75,671.783 1463.72,671.817 1464.66,672.02C1464.78,672.91 1465.55,673.3 1466.09,673.86C1469.34,677.25 1472.62,680.61 1475.89,683.99C1470.43,684.71 1464.89,684.78 1459.44,685.24C1453.79,685.71 1448.12,685.96 1442.44,686.34C1436.31,686.75 1430.17,687.21 1424.04,687.63C1420.45,687.87 1416.86,688.06 1413.27,688.3C1407.27,688.72 1401.27,689.17 1395.35,689.58C1389.77,689.97 1384.18,690.31 1378.6,690.69C1372.79,691.09 1366.97,691.54 1361.16,691.93C1357.41,692.18 1353.65,692.35 1349.91,692.61C1344.17,693.01 1338.43,693.49 1332.69,693.89C1326.95,694.29 1321.21,694.58 1315.47,694.97C1304.94,695.7 1294.47,696.5 1283.9,697.22C1273.33,697.94 1262.68,698.56 1252.08,699.28C1241.48,700 1231.08,700.8 1220.51,701.53C1210.86,702.2 1201.2,702.83 1191.51,703.53L1152.51,706.11C1141.66,706.84 1130.81,707.61 1119.96,708.34C1111.9,708.89 1103.84,709.39 1095.79,709.94C1085.18,710.67 1074.57,711.45 1063.96,712.17C1050.8,713.057 1037.64,713.93 1024.47,714.79L976.32,718C972.81,718.24 969.32,718.49 965.79,718.8C964.44,718.92 964.26,719.38 965.02,720.44C965.304,720.826 965.608,721.196 965.93,721.55C974.82,731.62 983.74,741.68 992.59,751.79C993.518,753.026 995.068,753.638 996.59,753.37C1002.46,752.64 1008.34,752 1014.22,751.37C1025.97,750.037 1037.73,748.677 1049.48,747.29C1058.69,746.23 1067.91,745.21 1077.12,744.15C1088.79,742.817 1100.46,741.463 1112.12,740.09C1121.65,739.003 1131.18,737.917 1140.71,736.83L1175,732.88C1184.45,731.8 1193.9,730.75 1203.35,729.66C1213.35,728.52 1223.35,727.367 1233.35,726.2C1241.05,725.32 1248.75,724.5 1256.45,723.61C1267,722.39 1277.55,721.13 1288.1,719.91C1297.1,718.91 1306.03,717.91 1315,716.91L1347.36,713.2L1377.57,709.75C1383.36,709.083 1389.15,708.417 1394.94,707.75C1403.94,706.75 1413,705.63 1422.03,704.6C1429.72,703.72 1437.42,702.9 1445.11,702.01C1454.11,701.01 1463,699.89 1471.95,698.84C1480.18,697.873 1488.42,696.92 1496.66,695.98L1537.3,691.4C1540.77,691.01 1544.23,690.46 1547.73,690.31C1547.8,690.69 1547.66,691.11 1547.95,691.45C1547.26,691.646 1546.56,691.803 1545.85,691.92C1537.51,692.92 1529.17,693.92 1520.85,694.92L1482.73,699.48L1445.06,704L1406.47,708.61L1368.6,713.16L1335.01,717.16L1296.67,721.79L1259.03,726.29L1220.93,730.88C1208.3,732.4 1195.67,733.907 1183.05,735.4C1166.38,737.4 1149.72,739.4 1133.05,741.4C1117.72,743.24 1102.38,745.07 1087.05,746.89C1070.45,748.89 1053.86,750.89 1037.27,752.89C1022.98,754.6 1008.68,756.24 994.39,757.99C992.491,758.372 990.529,757.679 989.29,756.19C980.2,746.08 971,736 961.9,726C960.892,724.969 959.982,723.848 959.18,722.65C958.57,721.65 958.05,721.81 957.24,722.25C955.42,723.25 953.56,724.18 951.73,725.15C949.9,726.12 948.29,726.87 946.66,727.88C945.208,728.634 944.293,730.14 944.293,731.776C944.293,732.98 944.787,734.132 945.66,734.96C954.17,744.21 962.18,753.88 970.31,763.45C972.85,766.603 976.5,768.671 980.51,769.23C983.372,769.625 986.277,769.595 989.13,769.14C995.68,768.05 1002.27,767.29 1008.85,766.42C1020.27,764.92 1031.69,763.433 1043.1,761.96L1078.54,757.3C1091.15,755.653 1103.76,753.987 1116.36,752.3L1155.13,747.21L1197.47,741.68L1243.61,735.68L1281.67,730.68L1327.1,724.68L1366.58,719.53L1408.45,714.06L1450.31,708.6L1485.51,703.97C1499.62,702.12 1513.73,700.23 1527.85,698.44C1533.4,697.73 1538.91,696.67 1544.53,696.57C1544.32,697.21 1544.93,697.35 1545.21,697.68C1546.31,698.98 1546.21,699.83 1544.85,700.83C1544.19,701.277 1543.42,701.545 1542.62,701.61L1523.16,704.39L1497.26,708L1467.59,712.14C1460.39,713.14 1453.19,714.14 1445.99,715.14L1416.08,719.32C1407.77,720.48 1399.47,721.68 1391.16,722.84L1361.49,727C1352.94,728.2 1344.4,729.43 1335.86,730.63L1310.21,734.19L1288.61,737.19L1258.71,741.37L1229.71,745.47C1221.25,746.663 1212.78,747.843 1204.31,749.01L1175.31,753.01L1149.44,756.65L1120.25,760.76L1094.85,764.31L1065.42,768.46C1056.95,769.64 1048.49,770.82 1040.02,772L1010.82,776.11C1002.36,777.29 993.897,778.477 985.43,779.67C983.77,779.9 982.11,780.19 980.43,780.49C974.643,781.679 968.615,780.419 963.79,777.01C961.804,775.662 959.92,774.171 958.15,772.55C956.934,771.379 955.593,770.346 954.15,769.47C951.984,768.1 949.393,767.56 946.86,767.95C934.61,769.75 922.32,771.3 910.05,772.95C897.61,774.637 885.177,776.33 872.75,778.03C862.62,779.41 852.47,780.73 842.34,782.1C831.25,783.6 820.17,785.1 809.09,786.65C798.95,788.02 788.81,789.35 778.67,790.72C768.67,792.07 758.72,793.46 748.74,794.81L722,798.55L689.24,803L662.63,806.62L632,810.8L606.82,814.21C606.421,814.255 606.019,814.255 605.62,814.21C602.51,813.89 601.82,812.54 603.05,809.69C604.142,807.28 605.928,805.25 608.18,803.86C623.78,793.38 639.357,782.867 654.91,772.32L761.65,700.2C764.89,698.01 768.09,695.77 771.32,693.55C774.15,691.9 776.83,690 779.51,688.08ZM1229.65,630C1230.59,630.437 1231.63,630.6 1232.65,630.47C1234.4,630.3 1236.16,630.22 1237.91,630.13C1248.27,629.59 1258.63,629.063 1269,628.55C1270.54,628.643 1272.01,627.92 1272.88,626.65C1274.77,628.798 1276.54,631.056 1278.17,633.41C1285.42,643.297 1292.67,653.19 1299.9,663.09C1301.13,664.76 1302.41,666.4 1304.57,666.96C1306.73,667.52 1309.18,667.12 1311.48,667.04C1320.09,666.74 1328.7,666.33 1337.31,666.04C1339.38,665.96 1341.45,665.87 1343.52,665.73C1344.67,665.778 1345.7,664.978 1345.93,663.85C1346.27,662.62 1346.63,661.39 1347.06,660.19C1347.8,658.11 1348.06,655.85 1349.22,653.93C1349.63,654.41 1350.06,654.93 1350.45,655.38C1356.08,662.38 1361.7,669.38 1367.33,676.38C1368.27,677.54 1369.13,678.84 1370.78,679.13C1371.92,680.66 1373.56,680.13 1374.99,680C1384.83,679 1394.74,679 1404.56,677.72C1406.95,677.4 1407.24,677.33 1407.78,675.01C1408.89,670.19 1409.98,665.36 1411.12,660.54C1411.52,659.245 1411.61,657.875 1411.38,656.54C1411.64,654.68 1410.5,653.36 1409.55,652.02C1407.42,649.02 1405.2,646.09 1403.02,643.12L1334.58,549.64C1333.8,548.531 1332.95,547.466 1332.05,546.45C1330.57,544.693 1328.21,543.917 1325.98,544.45C1324.58,544.748 1323.21,545.197 1321.9,545.79C1314.16,549.217 1306.42,552.64 1298.67,556.06C1296.57,556.99 1295.5,556.75 1293.99,555.06C1293.56,554.58 1293.2,554.06 1292.82,553.53L1253.1,499.08C1252.3,497.883 1251.36,496.785 1250.3,495.81C1249.45,494.947 1248.33,494.394 1247.13,494.24C1243.71,494.14 1240.32,493.84 1236.95,495.07C1227.04,498.67 1217.05,502.07 1207.13,505.6C1205.18,506.497 1202.86,505.886 1201.6,504.15L1200.68,503.04C1190.97,491.36 1181.25,479.677 1171.54,467.99C1156.87,450.33 1142.23,432.663 1127.6,414.99C1126.73,413.832 1125.57,412.925 1124.24,412.36C1119.15,410.53 1114.16,409.94 1108.88,412.25C1098.12,416.96 1087.19,421.25 1076.34,425.81C1071.18,427.95 1066.03,430.14 1060.88,432.32C1058.95,433.095 1057.1,434.071 1055.37,435.23C1051.66,437.83 1049.64,442.6 1050.68,446.23C1051.51,449.14 1051.09,450.13 1048.39,451.23C1037.64,455.76 1026.87,460.23 1016.13,464.8C1014.38,465.725 1012.2,465.307 1010.92,463.8L1009.57,462.43L926.76,376.95L884.68,333.52C881.75,330.52 878.48,327.93 874.38,326.75C868.056,324.826 861.237,325.326 855.26,328.15C834,338 812.56,347.39 791.22,357C786.647,358.896 782.227,361.143 778,363.72C776.384,364.621 774.993,365.876 773.93,367.39C769.33,374.94 769.16,378 774.46,384.74C776.641,387.296 778.979,389.714 781.46,391.98C853.58,463.74 926,535.26 997.83,607.26C998.367,607.964 999.049,608.544 999.83,608.96C1000.63,610.059 1001.88,610.732 1003.24,610.78C1010.75,610.88 1018.24,611.1 1025.76,611.26L1078.7,612.38C1082.85,612.47 1087,612.66 1091.15,612.71C1094.4,612.71 1096.5,610.71 1096.82,607.5C1096.92,606.5 1097.08,605.61 1097.22,604.66C1100.37,606.692 1103.24,609.13 1105.76,611.91C1121.47,628.53 1137.22,645.117 1153,661.67C1153.64,662.492 1154.4,663.21 1155.26,663.8C1156.01,666.07 1156.02,666.14 1158.19,666.13C1161.62,666.13 1165.04,665.89 1168.46,665.74L1190.21,664.74C1197.94,664.4 1205.67,664.15 1213.39,663.74C1217.77,663.51 1222.16,663.41 1226.54,663.22C1229.43,663.1 1230.81,661.7 1230.73,658.87C1230.59,654.17 1230.31,649.47 1230.19,644.77C1230.05,639.88 1229.51,635 1229.65,630Z" style="fill:rgb(253,253,253);fill-rule:nonzero;"/>
            </g>
            <g transform="matrix(1,0,0,1,-382.95,-254.96)">
                <path d="M384.83,257C384.715,259.239 385.353,261.454 386.64,263.29C391.09,270.5 395.35,277.83 399.93,284.97C401.192,286.933 402.907,288.566 404.93,289.73C407.106,291.081 409.386,292.255 411.75,293.24C419.75,296.41 427.12,300.74 434.75,304.68C445.96,310.5 457.1,316.46 468.29,322.34C494.197,335.953 520.11,349.56 546.03,363.16C558.837,369.887 571.653,376.613 584.48,383.34C605.52,394.353 626.567,405.353 647.62,416.34C662.287,424 676.953,431.65 691.62,439.29C711.84,449.8 732.05,460.34 752.49,470.43C756.14,472.24 759.94,473.74 763.61,475.51C772.763,480.104 781.552,485.389 789.9,491.32C790.666,491.894 791.382,492.533 792.04,493.23L832.8,533.23C839.65,539.95 846.43,546.75 853.41,553.34C856.845,556.691 859.797,560.505 862.18,564.67C862.84,565.76 863.48,566.88 864.08,568.01C866.38,572.32 865.54,579.1 862.08,582.57C857.01,587.68 851.84,592.68 846.7,597.73C846.37,598.06 846.05,598.45 845.49,598.39C846.18,596.1 847.16,593.89 847.1,591.39C847.13,589.392 846.445,587.448 845.17,585.91C836.23,575.06 827.44,564.07 818.17,553.47C813.17,547.74 808,542.18 802.9,536.56C799.72,533.07 796.65,529.48 793.31,526.17C785.171,517.9 775.919,510.805 765.82,505.09C753.93,498.51 742.21,491.62 730.41,484.88L699,467L663.2,446.53C651.467,439.863 639.733,433.17 628,426.45C616.267,419.73 604.473,412.983 592.62,406.21C582,400.143 571.377,394.083 560.75,388.03C548.95,381.29 537.157,374.54 525.37,367.78C515.79,362.313 506.207,356.853 496.62,351.4C485.72,345.18 474.827,338.95 463.94,332.71L436.25,316.9L398.76,295.5C397.412,294.791 396.335,293.655 395.7,292.27C391.63,283.27 387.5,274.22 383.38,265.21C383.042,264.572 382.902,263.848 382.98,263.13C383.3,261 383.56,258.84 384.83,257Z" style="fill:rgb(4,67,170);fill-rule:nonzero;"/>
            </g>
            <g transform="matrix(1,0,0,1,-382.95,-254.96)">
                <path d="M1464.8,672C1463.86,671.797 1462.89,671.763 1461.94,671.9L1416.88,673.76C1416.24,673.795 1415.6,673.795 1414.96,673.76C1414.91,673.763 1414.86,673.765 1414.81,673.765C1413.65,673.765 1412.68,672.803 1412.68,671.635C1412.68,671.37 1412.73,671.107 1412.83,670.86C1413.67,667.29 1414.52,663.71 1415.43,660.15C1415.74,658.921 1415.65,657.626 1415.18,656.45C1414.18,653.53 1412.26,651.16 1410.48,648.7L1363.48,583.86L1353.48,570.07C1354.29,569.07 1355.11,569.93 1355.82,570.16C1363.13,572.49 1370.41,574.89 1377.71,577.27C1391.47,581.75 1405.23,586.22 1418.99,590.68C1421.52,591.463 1423.8,592.898 1425.6,594.84C1437.29,607.44 1448.98,620.043 1460.67,632.65L1483.54,657.24C1484.54,658.36 1485.54,659.56 1486.61,660.61C1488.54,662.576 1489.54,665.281 1489.34,668.03C1489.34,670.03 1488.86,670.61 1486.83,670.71C1482.04,670.96 1477.24,671.13 1472.45,671.36C1469.89,671.417 1467.34,671.631 1464.8,672Z" style="fill:rgb(1,1,1);fill-rule:nonzero;"/>
            </g>
            <g transform="matrix(1,0,0,1,-382.95,-254.96)">
                <path d="M1544.51,696.59C1538.89,696.69 1533.38,697.75 1527.83,698.46C1513.71,700.25 1499.6,702.14 1485.49,703.99L1450.29,708.62L1408.43,714.08L1366.56,719.55L1327.08,724.7L1281.65,730.7L1243.59,735.7L1197.45,741.7L1155.11,747.23L1116.34,752.32C1103.74,753.98 1091.13,755.647 1078.52,757.32L1043.08,761.98C1031.67,763.473 1020.26,764.96 1008.83,766.44C1002.25,767.31 995.66,768.07 989.11,769.16C986.257,769.615 983.352,769.645 980.49,769.25C976.48,768.691 972.83,766.623 970.29,763.47C962.16,753.9 954.15,744.23 945.64,734.98C944.767,734.152 944.273,733 944.273,731.796C944.273,730.16 945.188,728.654 946.64,727.9C948.27,726.9 950.01,726.07 951.71,725.17C953.41,724.27 955.4,723.26 957.22,722.27C958.03,721.83 958.55,721.69 959.16,722.67C959.969,723.862 960.886,724.977 961.9,726C971.03,736.08 980.2,746.12 989.3,756.22C990.539,757.709 992.501,758.402 994.4,758.02C1008.69,756.27 1022.99,754.63 1037.28,752.92C1053.87,750.92 1070.46,748.92 1087.06,746.92C1102.39,745.08 1117.73,743.25 1133.06,741.43C1149.73,739.43 1166.39,737.43 1183.06,735.43C1195.68,733.923 1208.31,732.417 1220.94,730.91L1259.04,726.32L1296.68,721.82L1335.02,717.19L1368.61,713.19L1406.48,708.64L1445.07,704.03L1482.7,699.49L1520.82,694.93C1529.15,693.93 1537.49,692.93 1545.82,691.93C1546.53,691.813 1547.23,691.656 1547.92,691.46C1547.61,693.68 1547,695.75 1544.51,696.59Z" style="fill:rgb(6,6,6);fill-rule:nonzero;"/>
            </g>
            <g transform="matrix(1,0,0,1,-382.95,-254.96)">
                <path d="M779.51,688.08C776.83,690 774.15,691.9 771.31,693.57C770.46,692.29 770.81,690.79 770.61,689.41C770.007,686.307 769.612,683.166 769.43,680.01C770.133,680.951 770.988,681.769 771.96,682.43C774.619,684.116 777.143,686.005 779.51,688.08Z" style="fill:rgb(4,67,170);fill-rule:nonzero;"/>
            </g>
            <g transform="matrix(1,0,0,1,-382.95,-254.96)">
                <path d="M931.6,664.14C935.267,664.531 938.615,666.417 940.85,669.35C941.303,669.917 941.609,670.587 941.74,671.3C942.121,672.589 941.384,673.964 940.1,674.36C939.438,674.655 938.711,674.772 937.99,674.7C934.183,674.452 930.668,672.555 928.37,669.51C928.087,669.125 927.861,668.7 927.7,668.25C926.92,666.25 927.7,664.76 929.81,664.25C930.404,664.182 931.002,664.146 931.6,664.14Z" style="fill:rgb(253,253,253);fill-rule:nonzero;"/>
            </g>
            <g transform="matrix(1,0,0,1,-382.95,-254.96)">
                <path d="M957.26,663.46C961.107,663.833 964.585,665.931 966.71,669.16C967.454,670.043 967.574,671.302 967.01,672.31C966.352,673.287 965.164,673.773 964.01,673.54C960.134,673.246 956.591,671.22 954.37,668.03C953.532,667.12 953.359,665.772 953.94,664.68C954.65,663.56 955.83,663.55 957.26,663.46Z" style="fill:rgb(253,253,253);fill-rule:nonzero;"/>
            </g>
            <g transform="matrix(1,0,0,1,-382.95,-254.96)">
                <path d="M930.27,645.4C933.725,645.672 936.927,647.332 939.14,650C939.439,650.373 939.681,650.787 939.86,651.23C940.63,652.99 940.02,654.23 938.18,654.64C937.479,654.807 936.754,654.844 936.04,654.75C933.009,654.382 930.199,652.967 928.1,650.75C927.66,650.288 927.293,649.762 927.01,649.19C926.01,647.19 926.87,645.73 929.07,645.45C929.469,645.408 929.869,645.392 930.27,645.4Z" style="fill:rgb(253,253,253);fill-rule:nonzero;"/>
            </g>
            <g transform="matrix(1,0,0,1,-382.95,-254.96)">
                <path d="M988.53,672.35C984.934,671.824 981.718,669.813 979.67,666.81C978.958,666.007 978.793,664.851 979.25,663.88C979.846,662.983 980.941,662.548 981.99,662.79C985.777,663.166 989.208,665.204 991.35,668.35C992.087,669.133 992.255,670.301 991.77,671.26C991.15,672.28 990.12,672.42 988.53,672.35Z" style="fill:rgb(253,253,253);fill-rule:nonzero;"/>
            </g>
            <g transform="matrix(1,0,0,1,-382.95,-254.96)">
                <path d="M956.18,645.43C959.633,645.867 962.759,647.705 964.82,650.51C965.43,651.35 965.96,652.32 965.31,653.39C964.71,654.283 963.622,654.724 962.57,654.5C958.929,654.224 955.585,652.371 953.42,649.43C952.653,648.67 952.459,647.497 952.94,646.53C953.53,645.51 954.61,645.41 956.18,645.43Z" style="fill:rgb(253,253,253);fill-rule:nonzero;"/>
            </g>
            <g transform="matrix(1,0,0,1,-382.95,-254.96)">
                <path d="M1011.19,671.33C1007.68,670.694 1004.57,668.676 1002.55,665.73C1001.89,664.993 1001.76,663.912 1002.23,663.04C1002.76,662.305 1003.7,661.974 1004.58,662.21C1008.36,662.607 1011.77,664.692 1013.85,667.88C1014.44,668.573 1014.56,669.554 1014.16,670.37C1013.6,671.33 1012.61,671.38 1011.19,671.33Z" style="fill:rgb(253,253,253);fill-rule:nonzero;"/>
            </g>
            <g transform="matrix(1,0,0,1,-382.95,-254.96)">
                <path d="M985.56,654.17C982.107,653.732 978.995,651.853 977,649C976.36,648.361 976.177,647.389 976.54,646.56C977.036,645.706 978.039,645.274 979,645.5C982.607,645.847 985.893,647.742 988,650.69C988.632,651.333 988.821,652.295 988.48,653.13C987.93,654.16 986.93,654.13 985.56,654.17Z" style="fill:rgb(253,253,253);fill-rule:nonzero;"/>
            </g>
            <g transform="matrix(1,0,0,1,-382.95,-254.96)">
                <path d="M1026.29,661.63C1029.87,662.218 1033.02,664.328 1034.93,667.41C1036.05,669.24 1035.11,670.68 1032.99,670.41C1029.39,669.913 1026.17,667.922 1024.11,664.93C1023.47,664.284 1023.3,663.307 1023.67,662.48C1024.19,661.49 1025.16,661.69 1026.29,661.63Z" style="fill:rgb(253,253,253);fill-rule:nonzero;"/>
            </g>
            <g transform="matrix(1,0,0,1,-382.95,-254.96)">
                <path d="M1007.86,654C1004.28,653.551 1001.06,651.573 999.04,648.58C997.92,646.89 998.72,645.44 1000.7,645.58C1004.5,645.819 1007.94,647.902 1009.92,651.15C1010.9,652.73 1010.06,653.92 1007.86,654Z" style="fill:rgb(253,253,253);fill-rule:nonzero;"/>
            </g>
            <g transform="matrix(1,0,0,1,-382.95,-254.96)">
                <path d="M1370.79,679.12C1369.14,678.83 1368.28,677.53 1367.34,676.37C1361.7,669.377 1356.07,662.377 1350.46,655.37C1350.07,654.87 1349.64,654.37 1349.23,653.92C1349.29,652.242 1348.72,636.95 1347.19,638.64C1346.71,639.069 1346.17,639.423 1345.59,639.69L1307.22,661.75C1304.1,663.55 1304.09,663.54 1304.47,666.96C1302.31,666.4 1301.03,664.76 1299.8,663.09C1292.55,653.203 1285.31,643.31 1278.07,633.41C1276.44,631.056 1274.67,628.798 1272.78,626.65C1273.01,625.097 1243.96,607.09 1232.86,613.88C1230.42,615.37 1227.8,616.61 1225.64,618.53C1223.14,618.11 1221.44,619.71 1219.57,620.89L1183.7,643.41C1175.8,648.41 1167.95,653.41 1160.01,658.31C1157.79,659.69 1155.66,660.97 1155.16,663.8C1154.3,663.21 1153.54,662.492 1152.9,661.67C1137.14,645.103 1100.27,606.692 1097.12,604.66C1097.03,602.13 1079.59,558.42 1074.89,561.13C1068.32,564.917 1061.75,568.717 1055.2,572.53L1035.52,583.93C1028.75,587.85 1021.98,591.767 1015.2,595.68C1011.2,597.99 1007.2,600.41 1003.08,602.46C1001.47,603.157 1000.37,604.706 1000.26,606.46C1000.14,607.31 1000.54,608.23 999.86,608.99C999.079,608.574 998.397,607.994 997.86,607.29C926,535.26 853.58,463.74 781.46,392C778.979,389.734 776.641,387.316 774.46,384.76C769.16,378.02 769.33,374.96 773.93,367.41C774.993,365.896 776.384,364.641 778,363.74C782.226,361.156 786.646,358.902 791.22,357C812.56,347.38 833.98,338 855.22,328.24C861.197,325.416 868.016,324.916 874.34,326.84C878.44,328.02 881.71,330.59 884.64,333.61L926.72,377.04L1009.53,462.52L1010.88,463.89C1012.16,465.397 1014.34,465.815 1016.09,464.89C1026.83,460.32 1037.6,455.89 1048.35,451.32C1051.05,450.18 1051.47,449.19 1050.64,446.32C1049.64,442.68 1051.64,437.91 1055.33,435.32C1057.06,434.161 1058.91,433.185 1060.84,432.41C1065.99,430.23 1071.14,428.04 1076.3,425.9C1087.15,421.39 1098.08,417.05 1108.84,412.34C1114.12,410.03 1119.11,410.62 1124.2,412.45C1125.53,413.015 1126.69,413.922 1127.56,415.08C1142.23,432.76 1156.87,450.427 1171.5,468.08C1181.2,479.773 1190.91,491.457 1200.64,503.13L1201.56,504.24C1202.82,505.976 1205.14,506.587 1207.09,505.69C1217.01,502.12 1227,498.76 1236.91,495.16C1240.28,493.93 1243.67,494.23 1247.09,494.33C1248.29,494.484 1249.41,495.037 1250.26,495.9C1251.32,496.875 1252.26,497.973 1253.06,499.17L1292.78,553.62C1293.16,554.14 1293.52,554.62 1293.95,555.15C1295.46,556.82 1296.53,557.06 1298.63,556.15C1306.38,552.743 1314.13,549.32 1321.86,545.88C1323.17,545.287 1324.54,544.838 1325.94,544.54C1328.17,544.007 1330.53,544.783 1332.01,546.54C1332.91,547.556 1333.76,548.621 1334.54,549.73L1403,643.12C1405.18,646.12 1407.4,649.02 1409.53,652.02C1410.53,653.36 1411.62,654.68 1411.37,656.54C1411.13,656.54 1410.85,656.63 1410.65,656.54C1408.48,655.61 1406.75,656.54 1404.88,657.62C1394.05,664.03 1383.15,670.34 1372.26,676.62C1371.28,677.044 1370.68,678.059 1370.79,679.12Z" style="fill:rgb(31,37,37);fill-rule:nonzero;"/>
            </g>
            <g transform="matrix(1,0,0,1,-382.95,-254.96)">
                <path d="M1370.79,679.12C1369.14,678.83 1368.28,677.53 1367.34,676.37C1361.7,669.377 1356.07,662.377 1350.46,655.37C1350.07,654.87 1349.64,654.37 1349.23,653.92C1349.29,652.242 1349.8,650.611 1350.73,649.21C1353.76,652.977 1356.8,656.747 1359.85,660.52C1361.31,662.32 1362.85,662.45 1364.49,660.86C1365.72,659.745 1367.06,658.763 1368.49,657.93C1371.49,656.02 1374.74,654.49 1377.59,652.32C1378.73,651.943 1379.8,651.396 1380.77,650.7C1385.29,648.19 1389.54,645.18 1394.32,643.1C1395.97,642.38 1396.26,640.9 1395.15,639.36C1393.3,636.76 1391.43,634.17 1389.48,631.64C1385.78,626.84 1381.87,622.19 1378.48,617.13C1376.37,613.93 1374.19,610.787 1371.93,607.7C1360.77,592.44 1349.6,577.183 1338.43,561.93C1337.53,560.606 1336.48,559.394 1335.29,558.32C1334.29,557.49 1333.23,556.78 1331.82,557.15C1330.63,557.002 1329.42,557.275 1328.4,557.92C1323.43,560.267 1318.47,562.627 1313.51,565C1311.57,565.92 1309.61,566.82 1307.7,567.79C1306.61,568.35 1305.64,569.08 1305.93,570.56C1305.76,571.1 1305.91,571.691 1306.31,572.09C1310.66,577.957 1314.99,583.83 1319.31,589.71C1322.72,594.71 1326.31,599.51 1329.95,604.33L1348.38,628.85C1349.61,630.523 1350.74,632.273 1351.75,634.09C1352.44,635.182 1352.68,636.506 1352.4,637.77C1350.48,636.97 1348.72,636.95 1347.19,638.64C1346.71,639.069 1346.17,639.423 1345.59,639.69L1307.22,661.75C1304.1,663.55 1304.09,663.54 1304.47,666.96C1302.31,666.4 1301.03,664.76 1299.8,663.09C1292.55,653.203 1285.31,643.31 1278.07,633.41C1276.44,631.056 1274.67,628.798 1272.78,626.65C1273.01,625.097 1273.04,623.521 1272.88,621.96C1272.75,620.84 1272.43,619.58 1273.28,618.53C1274.75,620.53 1276.22,622.53 1277.68,624.47C1280.1,627.74 1282.47,631.04 1284.93,634.27C1286.25,635.99 1287.57,636.27 1288.93,634.85C1291.06,632.71 1293.72,631.45 1296.25,629.97C1300.58,627.44 1305.06,625.18 1309.25,622.45C1310.02,622.238 1310.75,621.881 1311.39,621.4C1315.15,619.3 1318.89,617.16 1322.66,615.05C1323.98,614.31 1325.37,613.69 1326.66,612.95C1328.27,612.06 1328.48,611.23 1327.55,609.71C1326.5,607.917 1325.36,606.179 1324.14,604.5C1301.9,575.427 1279.68,546.35 1257.47,517.27C1255.91,515.27 1254.42,513.16 1252.78,511.2C1251.78,509.94 1250.7,508.49 1248.71,508.67C1247.84,508.542 1246.95,508.685 1246.16,509.08L1219.16,519.51C1218.16,519.9 1217.3,520.41 1217.16,521.59C1216.62,522.73 1217.49,523.39 1218.07,524.1C1220.45,527 1222.85,529.887 1225.27,532.76L1239.27,549.44C1239.35,549.763 1239.59,550.026 1239.9,550.14L1239.9,550.07C1239.94,550.335 1240.13,550.553 1240.39,550.62L1240.39,550.68C1242.86,553.68 1245.3,556.74 1247.8,559.74C1255.44,568.927 1263.08,578.11 1270.73,587.29C1271.73,588.44 1272.82,589.53 1272.8,591.21C1270.95,590.982 1269.09,591.541 1267.67,592.75C1267.23,593.093 1266.77,593.407 1266.29,593.69C1255.14,600.41 1243.96,607.09 1232.86,613.88C1230.42,615.37 1227.8,616.61 1225.64,618.53C1223.14,618.11 1221.44,619.71 1219.57,620.89L1183.7,643.41C1175.8,648.41 1167.95,653.41 1160.01,658.31C1157.79,659.69 1155.66,660.97 1155.16,663.8C1154.3,663.21 1153.54,662.492 1152.9,661.67C1137.14,645.103 1121.39,628.517 1105.66,611.91C1103.14,609.13 1100.27,606.692 1097.12,604.66C1097.03,602.13 1097.69,599.66 1097.67,597.11C1097.67,595.95 1098.11,594.8 1098.09,593.6C1098.09,593.02 1098.46,592.77 1098.98,592.68C1099.1,592.78 1099.23,592.88 1099.34,592.99C1107.86,602.84 1117.28,611.84 1126.07,621.44C1127.89,623.44 1129.3,623.36 1130.66,621.13C1132.79,617.824 1135.85,615.224 1139.46,613.66C1147.84,609.56 1156.16,605.34 1164.46,601.16C1165.23,600.77 1165.94,600.25 1166.67,599.79C1168.74,599.179 1170.7,598.233 1172.46,596.99C1175.81,595.67 1178.91,593.86 1182.16,592.34C1183.65,591.561 1185.29,591.108 1186.97,591.01C1187.37,591.024 1187.77,590.987 1188.16,590.9C1188.92,590.775 1189.48,590.111 1189.48,589.341C1189.48,588.963 1189.35,588.597 1189.1,588.31C1188.71,587.805 1188.28,587.328 1187.82,586.88C1179.86,578.353 1171.9,569.823 1163.95,561.29C1137.76,533.29 1111.57,505.27 1085.37,477.23C1082.57,474.055 1079.61,471.024 1076.5,468.15C1074.99,466.83 1073.36,465.62 1071.15,465.94C1069.05,465.75 1067.28,466.77 1065.46,467.53C1055.01,471.89 1044.58,476.28 1034.15,480.7C1033.46,480.93 1032.79,481.214 1032.15,481.55C1030.56,482.55 1030.34,483.94 1031.64,485.3C1034.07,487.83 1036.56,490.3 1039.03,492.78C1039.26,493.103 1039.5,493.413 1039.76,493.71C1049.6,503.883 1059.45,514.047 1069.31,524.2C1071.92,526.89 1074.4,529.71 1077.22,532.2C1077.63,532.68 1078.02,533.2 1078.46,533.63L1094.63,550.44C1092.65,551.04 1090.76,551.901 1089,553C1084.34,555.79 1079.59,558.42 1074.89,561.13C1068.32,564.917 1061.75,568.717 1055.2,572.53L1035.52,583.93C1028.75,587.85 1021.98,591.767 1015.2,595.68C1011.2,597.99 1007.2,600.41 1003.08,602.46C1001.47,603.157 1000.37,604.706 1000.26,606.46C1000.14,607.31 1000.54,608.23 999.86,608.99C999.079,608.574 998.397,607.994 997.86,607.29C926,535.26 853.58,463.74 781.46,392C778.979,389.734 776.641,387.316 774.46,384.76C769.16,378.02 769.33,374.96 773.93,367.41C774.993,365.896 776.384,364.641 778,363.74C782.226,361.156 786.646,358.902 791.22,357C812.56,347.38 833.98,338 855.22,328.24C861.197,325.416 868.016,324.916 874.34,326.84C878.44,328.02 881.71,330.59 884.64,333.61L926.72,377.04L1009.53,462.52L1010.88,463.89C1012.16,465.397 1014.34,465.815 1016.09,464.89C1026.83,460.32 1037.6,455.89 1048.35,451.32C1051.05,450.18 1051.47,449.19 1050.64,446.32C1049.64,442.68 1051.64,437.91 1055.33,435.32C1057.06,434.161 1058.91,433.185 1060.84,432.41C1065.99,430.23 1071.14,428.04 1076.3,425.9C1087.15,421.39 1098.08,417.05 1108.84,412.34C1114.12,410.03 1119.11,410.62 1124.2,412.45C1125.53,413.015 1126.69,413.922 1127.56,415.08C1142.23,432.76 1156.87,450.427 1171.5,468.08C1181.2,479.773 1190.91,491.457 1200.64,503.13L1201.56,504.24C1202.82,505.976 1205.14,506.587 1207.09,505.69C1217.01,502.12 1227,498.76 1236.91,495.16C1240.28,493.93 1243.67,494.23 1247.09,494.33C1248.29,494.484 1249.41,495.037 1250.26,495.9C1251.32,496.875 1252.26,497.973 1253.06,499.17L1292.78,553.62C1293.16,554.14 1293.52,554.62 1293.95,555.15C1295.46,556.82 1296.53,557.06 1298.63,556.15C1306.38,552.743 1314.13,549.32 1321.86,545.88C1323.17,545.287 1324.54,544.838 1325.94,544.54C1328.17,544.007 1330.53,544.783 1332.01,546.54C1332.91,547.556 1333.76,548.621 1334.54,549.73L1403,643.12C1405.18,646.12 1407.4,649.02 1409.53,652.02C1410.53,653.36 1411.62,654.68 1411.37,656.54C1411.13,656.54 1410.85,656.63 1410.65,656.54C1408.48,655.61 1406.75,656.54 1404.88,657.62C1394.05,664.03 1383.15,670.34 1372.26,676.62C1371.28,677.044 1370.68,678.059 1370.79,679.12ZM803.41,385.68C800.95,387.68 800.7,390.51 800.55,393.37C800.332,395.448 801.236,397.493 802.92,398.73C803.392,399.472 803.988,400.128 804.68,400.67C824.68,420.49 844.68,440.31 864.68,460.13C865.451,461.043 866.331,461.859 867.3,462.56C867.72,463.03 868.12,463.56 868.57,463.97L961,555.62C961.34,555.95 961.66,556.32 962,556.62C962.406,557.002 962.943,557.216 963.501,557.216C964.154,557.216 964.774,556.924 965.19,556.42C965.585,555.921 965.921,555.377 966.19,554.8C968.384,550.675 971.859,547.372 976.09,545.39C979.09,543.92 982.09,542.39 985.03,540.8L1010.32,527.67C1012.01,526.957 1013.64,526.1 1015.18,525.11C1018.46,523.661 1021.65,522.015 1024.73,520.18C1027.23,519.133 1029.66,517.924 1032,516.56C1034.88,515.02 1037.79,513.84 1041.14,514.45C1041.38,514.475 1041.62,514.475 1041.86,514.45C1042.52,514.497 1043.14,514.14 1043.43,513.55C1043.74,512.865 1043.57,512.053 1043.01,511.55C1042.44,510.98 1041.9,510.39 1041.34,509.82C1017.97,485.613 994.597,461.407 971.21,437.2C945.11,410.167 919.013,383.14 892.92,356.12C892.002,355.011 890.966,354.005 889.83,353.12C887.08,350.03 883.78,348.86 879.74,350.12C878.861,350.183 878.01,350.457 877.26,350.92C859.613,358.753 841.947,366.587 824.26,374.42C818.79,376.85 813.26,379.11 807.96,381.92C806.135,382.745 804.564,384.044 803.41,385.68ZM1212.91,566.78C1216.69,565.23 1220.19,563.14 1223.86,561.38C1226.72,560 1229.4,558.26 1232.86,558.38C1234.54,558.38 1235.1,556.95 1234.2,555.48C1234.03,555.212 1233.84,554.958 1233.63,554.72C1229.18,549.27 1224.76,543.79 1220.08,538.53C1205.64,522.27 1191.19,506.013 1176.74,489.76C1159.85,470.76 1142.95,451.76 1126.05,432.76C1125.49,431.88 1124.62,431.233 1123.62,430.94C1122.32,430.03 1121.16,430.81 1120.01,431.28C1106.68,436.767 1093.34,442.27 1080.01,447.79C1078.3,448.457 1076.65,449.256 1075.07,450.18C1074.15,450.588 1073.55,451.505 1073.55,452.512C1073.55,453.241 1073.86,453.936 1074.41,454.42C1075.66,455.974 1077.05,457.407 1078.57,458.7C1078.85,459.269 1079.26,459.77 1079.75,460.17C1085.39,466.17 1091.03,472.17 1096.68,478.17C1099.37,481.01 1101.87,484.02 1104.8,486.62C1105.02,486.949 1105.26,487.266 1105.51,487.57L1130.81,514.48L1174.36,560.78C1179.07,565.78 1183.78,570.78 1188.53,575.78C1190.47,577.78 1191.53,577.88 1194.04,576.58C1196.55,575.28 1199.04,574.07 1201.51,572.77C1205.27,570.73 1209.23,569 1212.91,566.78Z" style="fill:rgb(1,2,2);fill-rule:nonzero;"/>
            </g>
            <g transform="matrix(1,0,0,1,-382.95,-254.96)">
                <path d="M999.82,609C1000.5,608.24 1000.1,607.32 1000.22,606.47C1000.33,604.716 1001.43,603.167 1003.04,602.47C1007.19,600.47 1011.15,598 1015.16,595.69C1021.94,591.79 1028.71,587.873 1035.48,583.94L1055.16,572.54C1061.72,568.74 1068.28,564.94 1074.85,561.14C1079.55,558.43 1084.3,555.8 1088.96,553.01C1090.78,551.905 1092.74,551.054 1094.79,550.48C1095.94,551.48 1097.18,552.34 1098.22,553.41C1100.09,555.32 1101.49,557.62 1101.34,560.33C1101.09,564.85 1100.5,569.33 1100.05,573.85C1099.62,578.12 1099.11,582.38 1098.81,586.65C1098.66,588.65 1098.01,590.75 1099.07,592.73C1098.55,592.82 1098.17,593.07 1098.18,593.65C1098.18,594.85 1097.75,596 1097.76,597.16C1097.76,599.7 1097.12,602.16 1097.21,604.71C1097.07,605.71 1096.91,606.6 1096.81,607.55C1096.49,610.79 1094.39,612.8 1091.14,612.76C1086.99,612.71 1082.84,612.52 1078.69,612.43L1025.75,611.31C1018.25,611.15 1010.75,610.93 1003.23,610.83C1001.87,610.779 1000.61,610.103 999.82,609Z" style="fill:rgb(31,53,88);fill-rule:nonzero;"/>
            </g>
            <g transform="matrix(1,0,0,1,-382.95,-254.96)">
                <path d="M1155.25,663.8C1155.75,660.97 1157.88,659.69 1160.1,658.31C1168.04,653.41 1175.89,648.37 1183.79,643.41L1219.66,620.89C1221.53,619.71 1223.23,618.11 1225.73,618.53C1227.25,619.248 1228.33,620.671 1228.6,622.33C1229.03,624.87 1229.31,627.44 1229.65,630C1229.51,635 1230.05,639.88 1230.18,644.82C1230.3,649.52 1230.58,654.22 1230.72,658.92C1230.8,661.75 1229.42,663.15 1226.53,663.27C1222.15,663.46 1217.76,663.56 1213.38,663.79C1205.66,664.2 1197.93,664.45 1190.2,664.79L1168.45,665.79C1165.03,665.94 1161.61,666.17 1158.18,666.18C1156,666.14 1156,666.07 1155.25,663.8Z" style="fill:rgb(31,53,88);fill-rule:nonzero;"/>
            </g>
            <g transform="matrix(1,0,0,1,-382.95,-254.96)">
                <path d="M1229.65,630C1229.31,627.44 1229.03,624.87 1228.6,622.33C1228.33,620.671 1227.25,619.248 1225.73,618.53C1227.89,616.61 1230.51,615.37 1232.95,613.88C1244.05,607.09 1255.23,600.41 1266.38,593.69C1266.86,593.407 1267.32,593.093 1267.76,592.75C1269.18,591.541 1271.04,590.982 1272.89,591.21C1273.45,591.782 1273.77,592.542 1273.79,593.34C1273.79,595.56 1273.9,597.79 1273.72,600C1273.23,606.17 1273.3,612.35 1273.39,618.53C1272.54,619.58 1272.86,620.84 1272.99,621.96C1273.15,623.521 1273.12,625.097 1272.89,626.65C1272.02,627.92 1270.55,628.643 1269.01,628.55C1258.65,629.05 1248.29,629.577 1237.92,630.13C1236.17,630.22 1234.41,630.3 1232.66,630.47C1231.63,630.602 1230.59,630.439 1229.65,630Z" style="fill:rgb(48,78,126);fill-rule:nonzero;"/>
            </g>
            <g transform="matrix(1,0,0,1,-382.95,-254.96)">
                <path d="M1304.58,667C1304.2,663.58 1304.21,663.59 1307.33,661.79L1345.7,639.73C1346.28,639.463 1346.82,639.109 1347.3,638.68C1348.83,636.99 1350.59,637.01 1352.51,637.81C1352.96,640.91 1352.1,643.81 1351.15,646.69C1350.74,647.476 1350.59,648.374 1350.73,649.25C1349.8,650.651 1349.29,652.282 1349.23,653.96C1348.02,655.88 1347.81,658.14 1347.07,660.22C1346.64,661.42 1346.28,662.65 1345.94,663.88C1345.71,665.008 1344.68,665.808 1343.53,665.76C1341.46,665.9 1339.39,665.99 1337.32,666.07C1328.71,666.37 1320.1,666.78 1311.49,667.07C1309.19,667.12 1306.87,667.46 1304.58,667Z" style="fill:rgb(31,53,88);fill-rule:nonzero;stroke:rgb(31,53,88);stroke-width:0.3px;"/>
            </g>
            <g transform="matrix(1,0,0,1,-382.95,-254.96)">
                <path d="M1370.79,679.12C1370.7,678.062 1371.31,677.061 1372.29,676.65C1383.18,670.34 1394.08,664.03 1404.91,657.65C1406.78,656.54 1408.51,655.65 1410.68,656.57C1410.88,656.66 1411.16,656.57 1411.4,656.57C1411.62,657.906 1411.53,659.275 1411.13,660.57C1409.99,665.39 1408.9,670.22 1407.79,675.04C1407.25,677.36 1406.96,677.43 1404.57,677.75C1394.75,679 1384.84,679 1375,680C1373.57,680.14 1371.93,680.65 1370.79,679.12Z" style="fill:rgb(48,78,126);fill-rule:nonzero;"/>
            </g>
        </g>
    </g>
</svg>
