<?xml version="1.0" encoding="UTF-8" standalone="no"?>
<!DOCTYPE svg PUBLIC "-//W3C//DTD SVG 1.1//EN" "http://www.w3.org/Graphics/SVG/1.1/DTD/svg11.dtd">
<svg width="100%" height="100%" viewBox="0 0 244 208" version="1.1" xmlns="http://www.w3.org/2000/svg" xmlns:xlink="http://www.w3.org/1999/xlink" xml:space="preserve" xmlns:serif="http://www.serif.com/" style="fill-rule:evenodd;clip-rule:evenodd;stroke-linejoin:round;stroke-miterlimit:2;">
    <g transform="matrix(1,0,0,1,-417.418,-94.5586)">
        <g id="Cell-1" serif:id="Cell 1">
            <g transform="matrix(1,0,0,1,-382.95,-254.96)">
                <path d="M1015.18,525.11C1013.64,526.1 1012.01,526.957 1010.32,527.67C1010.25,526.97 1009.72,526.58 1009.32,526.1C1008.01,524.812 1006.64,523.59 1005.21,522.44C1002.01,519.44 999.03,516.22 995.69,513.34C992.13,510.27 989.04,506.68 985.46,503.6C981.88,500.52 978.88,497.31 975.6,494.16C970.42,489.16 965.03,484.41 960.03,479.23C958.739,477.937 957.325,476.772 955.81,475.75C951.525,472.669 946.495,470.784 941.24,470.29C935.62,469.79 930.04,469 924.43,468.38C918.82,467.76 913.23,467.08 907.63,466.46C902.03,465.84 896.43,465.16 890.82,464.54C885.21,463.92 879.62,463.32 874.02,462.62C872.53,462.43 871.02,462.44 869.52,462.13C868.755,461.823 867.877,461.992 867.28,462.56C866.311,461.859 865.431,461.043 864.66,460.13C844.66,440.317 824.66,420.497 804.66,400.67C803.968,400.128 803.372,399.472 802.9,398.73C805.065,398.157 807.323,398.025 809.54,398.34C813.62,399.04 817.75,399.16 821.85,399.6C824.21,399.85 826.62,400.01 828.97,400.28C833.06,400.75 837.18,401.13 841.28,401.5C845.55,401.87 849.8,402.5 854.1,402.65C855.925,402.702 857.746,402.869 859.55,403.15C863.62,403.86 867.75,404 871.86,404.41C875.09,404.73 878.34,404.92 881.56,405.41C882.96,405.65 884.33,406.19 885.75,406.32C891.75,406.85 896.63,409.93 901.04,413.61C905.45,417.29 909.04,421.42 913.14,425.2C919.91,431.4 926.06,438.2 932.86,444.44C940.05,451.01 946.56,458.28 953.77,464.86C960.44,470.94 966.54,477.6 973.13,483.79C981.69,491.79 989.75,500.38 998.33,508.4C1003.58,513.3 1008.24,518.82 1013.81,523.4C1014.42,523.828 1014.89,524.421 1015.18,525.11Z" style="fill:rgb(0,206,254);fill-rule:nonzero;stroke:rgb(0,206,254);stroke-width:0.3px;"/>
            </g>
            <g transform="matrix(1,0,0,1,-382.95,-254.96)">
                <path d="M867.26,462.56C867.857,461.992 868.735,461.823 869.5,462.13C870.99,462.44 872.5,462.43 874,462.62C879.6,463.32 885.2,463.93 890.8,464.54C896.4,465.15 902,465.85 907.61,466.46C913.22,467.07 918.81,467.77 924.41,468.38C930.01,468.99 935.6,469.79 941.22,470.29C946.475,470.784 951.505,472.669 955.79,475.75C957.305,476.772 958.719,477.937 960.01,479.23C965.01,484.41 970.4,489.17 975.58,494.16C978.86,497.31 981.99,500.63 985.44,503.6C988.89,506.57 992.11,510.27 995.67,513.34C999.01,516.22 1001.99,519.44 1005.19,522.44C1006.62,523.59 1007.99,524.812 1009.3,526.1C1009.72,526.58 1010.3,526.97 1010.3,527.67L985,540.8C982,542.34 979.07,543.92 976.06,545.39C971.829,547.372 968.354,550.675 966.16,554.8C965.891,555.377 965.555,555.921 965.16,556.42C964.744,556.924 964.124,557.216 963.471,557.216C962.913,557.216 962.376,557.002 961.97,556.62C961.6,556.32 961.28,555.95 960.97,555.62L868.53,464C868.08,463.53 867.68,463 867.26,462.56Z" style="fill:rgb(0,253,254);fill-rule:nonzero;stroke:rgb(0,253,254);stroke-width:0.3px;"/>
            </g>
            <g transform="matrix(1,0,0,1,-382.95,-254.96)">
                <path d="M889.83,353.16C890.966,354.045 892.002,355.051 892.92,356.16C919.02,383.18 945.117,410.207 971.21,437.24C994.583,461.447 1017.96,485.653 1041.34,509.86C1041.9,510.43 1042.44,511.02 1043.01,511.59C1043.57,512.093 1043.74,512.905 1043.43,513.59C1043.14,514.18 1042.52,514.537 1041.86,514.49C1041.62,514.515 1041.38,514.515 1041.14,514.49C1037.79,513.88 1034.88,515.06 1032,516.6C1029.66,517.964 1027.23,519.173 1024.73,520.22C1024.73,519.22 1023.93,518.69 1023.32,518.09C1019.99,514.87 1016.73,511.6 1013.32,508.46C1006.32,501.98 999.85,494.85 992.75,488.39C985.97,482.22 979.84,475.39 973.05,469.15C965.69,462.42 959.05,454.97 951.63,448.24C944.97,442.17 938.85,435.53 932.29,429.32C923.43,420.92 914.97,412.09 906.06,403.73C903.111,400.927 900.524,397.766 898.36,394.32C897.476,392.997 896.895,391.494 896.66,389.92C896.51,388.74 896.27,387.57 896.05,386.41C894.55,378.62 892.93,370.85 891.48,363.05C890.88,359.74 889.82,356.54 889.83,353.16Z" style="fill:rgb(0,206,254);fill-rule:nonzero;stroke:rgb(0,206,254);stroke-width:0.3px;"/>
            </g>
            <g transform="matrix(1,0,0,1,-382.95,-254.96)">
                <path d="M889.83,353.16C889.83,356.54 890.83,359.74 891.48,363.01C892.93,370.81 894.55,378.58 896.05,386.37C896.27,387.53 896.51,388.7 896.66,389.88C896.895,391.454 897.476,392.957 898.36,394.28C900.524,397.726 903.111,400.887 906.06,403.69C914.97,412.05 923.43,420.88 932.29,429.28C938.85,435.49 944.97,442.13 951.63,448.2C959.02,454.93 965.69,462.38 973.05,469.11C979.84,475.32 985.97,482.18 992.75,488.35C999.85,494.81 1006.28,501.94 1013.32,508.42C1016.73,511.56 1019.99,514.83 1023.32,518.05C1023.93,518.65 1024.72,519.16 1024.73,520.18C1021.65,522.015 1018.46,523.661 1015.18,525.11C1014.89,524.442 1014.43,523.867 1013.83,523.45C1008.26,518.87 1003.6,513.35 998.35,508.45C989.77,500.45 981.71,491.87 973.15,483.84C966.56,477.65 960.46,470.99 953.79,464.91C946.58,458.33 940.07,451.06 932.88,444.49C926.08,438.29 919.88,431.49 913.16,425.25C909.03,421.47 905.33,417.25 901.06,413.66C896.79,410.07 891.78,406.9 885.77,406.37C884.35,406.24 882.98,405.7 881.58,405.46C878.36,404.92 875.11,404.73 871.88,404.46C867.77,404.05 863.64,403.91 859.57,403.2C857.766,402.919 855.945,402.752 854.12,402.7C849.82,402.53 845.57,401.92 841.3,401.55C837.2,401.18 833.08,400.8 828.99,400.33C826.64,400.06 824.23,399.9 821.87,399.65C817.77,399.21 813.64,399.09 809.56,398.39C807.343,398.075 805.085,398.207 802.92,398.78C801.236,397.543 800.332,395.498 800.55,393.42C800.7,390.56 800.95,387.74 803.41,385.73C804.105,387.139 805.635,387.948 807.19,387.73C810.39,387.52 813.53,388.19 816.72,388.32C820.72,388.49 824.72,389.16 828.83,389.19C829.165,389.181 829.5,389.204 829.83,389.26C832.865,389.728 835.929,389.975 839,390C842,390.2 845.05,390.38 848,390.68C853,391.17 858,391.43 862.95,391.88C866.09,392.17 869.27,392.74 872.47,392.48C872.805,392.45 873.144,392.477 873.47,392.56C876.34,393.32 879.33,392.84 882.24,393.36C884.11,393.7 885.32,392.55 885.44,390.66C885.692,388.436 885.669,386.189 885.37,383.97C884.69,380.46 884.07,376.97 883.46,373.43C882.11,365.7 881.08,357.91 879.72,350.18C883.78,348.9 887.08,350.07 889.83,353.16Z" style="fill:rgb(7,225,255);fill-rule:nonzero;stroke:rgb(7,225,255);stroke-width:0.3px;"/>
            </g>
            <g transform="matrix(1,0,0,1,-382.95,-254.96)">
                <path d="M879.74,350.19C881.1,357.92 882.13,365.71 883.48,373.44C884.09,376.96 884.71,380.44 885.39,383.98C885.689,386.199 885.712,388.446 885.46,390.67C885.34,392.56 884.13,393.67 882.26,393.37C879.35,392.85 876.36,393.37 873.49,392.57C873.164,392.487 872.825,392.46 872.49,392.49C869.29,392.75 866.11,392.18 862.97,391.89C857.97,391.44 852.97,391.18 848.02,390.69C845.02,390.39 842.02,390.21 839.02,390.01C835.924,389.965 832.836,389.695 829.78,389.2C829.45,389.144 829.115,389.121 828.78,389.13C824.72,389.13 820.7,388.43 816.67,388.26C813.48,388.13 810.34,387.46 807.14,387.67C805.585,387.888 804.055,387.079 803.36,385.67C804.551,384.054 806.153,382.787 808,382C813.29,379.19 818.83,376.93 824.3,374.5C841.94,366.647 859.607,358.813 877.3,351C878.037,350.54 878.874,350.262 879.74,350.19Z" style="fill:rgb(0,253,254);fill-rule:nonzero;stroke:rgb(0,253,254);stroke-width:0.3px;"/>
            </g>
        </g>
    </g>
</svg>
