<?xml version="1.0" encoding="UTF-8" standalone="no"?>
<!DOCTYPE svg PUBLIC "-//W3C//DTD SVG 1.1//EN" "http://www.w3.org/Graphics/SVG/1.1/DTD/svg11.dtd">
<svg width="100%" height="100%" viewBox="0 0 162 148" version="1.1" xmlns="http://www.w3.org/2000/svg" xmlns:xlink="http://www.w3.org/1999/xlink" xml:space="preserve" xmlns:serif="http://www.serif.com/" style="fill-rule:evenodd;clip-rule:evenodd;stroke-linejoin:round;stroke-miterlimit:2;">
    <g transform="matrix(1,0,0,1,-690.412,-175.416)">
        <g id="Cell-3" serif:id="Cell 3">
            <g transform="matrix(1,0,0,1,-382.95,-254.96)">
                <path d="M1104.76,486.6C1101.83,484 1099.33,480.99 1096.64,478.15C1090.98,472.15 1085.34,466.15 1079.71,460.15C1079.22,459.75 1078.81,459.249 1078.53,458.68C1081.17,458.46 1083.76,459.12 1086.37,459.31C1088.12,459.317 1089.86,459.461 1091.58,459.74C1093.85,460.29 1096.16,460.18 1098.44,460.52C1102.44,461.12 1106.52,461.08 1110.52,461.66C1112.52,461.95 1114.52,461.85 1116.46,462.16C1119.39,462.63 1120.93,461.6 1121.14,458.67C1121.27,456.92 1121.58,455.18 1121.6,453.46C1121.6,450.66 1122.13,447.91 1122.27,445.13C1122.32,443.066 1122.48,441.006 1122.76,438.96C1123.22,436.29 1123.17,433.59 1123.59,430.96C1124.59,431.253 1125.46,431.9 1126.02,432.78C1142.92,451.773 1159.82,470.773 1176.71,489.78C1191.16,506.04 1205.61,522.297 1220.05,538.55C1224.73,543.81 1229.15,549.29 1233.6,554.74C1233.81,554.978 1234,555.232 1234.17,555.5C1235.07,556.97 1234.51,558.45 1232.83,558.4C1229.4,558.28 1226.72,560.02 1223.83,561.4C1220.16,563.16 1216.66,565.25 1212.88,566.8C1210.43,563.45 1207.44,560.57 1204.73,557.45C1202.8,555.22 1200.66,553.18 1198.79,550.9C1195.56,546.96 1191.97,543.34 1188.66,539.47C1186.74,537.23 1184.66,535.15 1182.66,532.94C1178.12,527.82 1173.66,522.64 1169.1,517.53C1165.54,513.53 1161.81,509.73 1158.33,505.68C1156.82,503.92 1155.1,502.36 1153.68,500.55C1151.03,497.321 1147.32,495.126 1143.21,494.35C1134.87,492.41 1126.44,490.83 1118.03,489.15C1113.66,488.24 1109.21,487.44 1104.76,486.6Z" style="fill:rgb(0,206,254);fill-rule:nonzero;stroke:rgb(0,206,254);stroke-width:0.3px;"/>
            </g>
            <g transform="matrix(1,0,0,1,-382.95,-254.96)">
                <path d="M1104.76,486.6C1109.21,487.44 1113.66,488.24 1118.09,489.13C1126.5,490.81 1134.93,492.39 1143.27,494.33C1147.38,495.106 1151.09,497.301 1153.74,500.53C1155.16,502.34 1156.88,503.9 1158.39,505.66C1161.87,509.66 1165.6,513.53 1169.16,517.51C1173.71,522.62 1178.16,527.8 1182.72,532.92C1184.72,535.13 1186.72,537.21 1188.72,539.45C1192.03,543.32 1195.62,546.94 1198.85,550.88C1200.72,553.16 1202.85,555.2 1204.79,557.43C1207.5,560.55 1210.49,563.43 1212.94,566.78C1209.26,569.01 1205.3,570.78 1201.5,572.78C1199.03,574.08 1196.5,575.3 1194.03,576.59C1191.56,577.88 1190.46,577.82 1188.52,575.79C1183.77,570.79 1179.06,565.79 1174.35,560.79L1130.8,514.49L1105.5,487.58C1105.24,487.267 1104.99,486.94 1104.76,486.6Z" style="fill:rgb(0,253,254);fill-rule:nonzero;stroke:rgb(0,253,254);stroke-width:0.3px;"/>
            </g>
            <g transform="matrix(1,0,0,1,-382.95,-254.96)">
                <path d="M1123.59,431C1123.17,433.67 1123.22,436.37 1122.76,439C1122.48,441.046 1122.32,443.106 1122.27,445.17C1122.13,447.95 1121.63,450.7 1121.6,453.5C1121.6,455.22 1121.27,456.96 1121.14,458.71C1120.93,461.64 1119.39,462.71 1116.46,462.2C1114.46,461.89 1112.46,461.99 1110.52,461.7C1106.52,461.12 1102.43,461.16 1098.44,460.56C1096.16,460.22 1093.85,460.33 1091.58,459.78C1089.86,459.501 1088.12,459.357 1086.37,459.35C1083.76,459.16 1081.17,458.5 1078.53,458.72C1077.01,457.427 1075.62,455.994 1074.37,454.44C1073.82,453.956 1073.51,453.261 1073.51,452.532C1073.51,451.525 1074.11,450.608 1075.03,450.2C1076.61,449.276 1078.26,448.477 1079.97,447.81C1093.3,442.277 1106.64,436.773 1119.97,431.3C1121.13,430.82 1122.29,430 1123.59,431Z" style="fill:rgb(0,253,254);fill-rule:nonzero;stroke:rgb(0,253,254);stroke-width:0.3px;"/>
            </g>
        </g>
    </g>
</svg>
