<?xml version="1.0" encoding="UTF-8" standalone="no"?>
<!DOCTYPE svg PUBLIC "-//W3C//DTD SVG 1.1//EN" "http://www.w3.org/Graphics/SVG/1.1/DTD/svg11.dtd">
<svg width="100%" height="100%" viewBox="0 0 91 106" version="1.1" xmlns="http://www.w3.org/2000/svg" xmlns:xlink="http://www.w3.org/1999/xlink" xml:space="preserve" xmlns:serif="http://www.serif.com/" style="fill-rule:evenodd;clip-rule:evenodd;stroke-linejoin:round;stroke-miterlimit:2;">
    <g transform="matrix(1,0,0,1,-922.858,-301.939)">
        <g id="Cell-5" serif:id="Cell 5">
            <g transform="matrix(1,0,0,1,-382.95,-254.96)">
                <path d="M1331.9,557.15C1333.31,556.78 1334.38,557.49 1335.37,558.32C1336.56,559.394 1337.61,560.606 1338.51,561.93C1349.67,577.19 1360.84,592.447 1372.01,607.7C1374.27,610.787 1376.45,613.93 1378.56,617.13C1381.9,622.19 1385.81,626.84 1389.56,631.64C1391.56,634.17 1393.38,636.76 1395.23,639.36C1396.34,640.9 1396.05,642.36 1394.4,643.1C1389.62,645.18 1385.4,648.19 1380.85,650.7C1379.88,651.396 1378.81,651.943 1377.67,652.32C1377.6,651.278 1377.22,650.282 1376.56,649.47C1374.19,646.28 1371.83,643.07 1369.56,639.84C1362.08,629.427 1354.61,619.007 1347.15,608.58C1345.15,605.72 1342.89,603.05 1339.66,601.41C1338.56,600.762 1337.5,600.05 1336.48,599.28C1331.7,596.1 1326.9,592.96 1321.84,590.28C1321.17,589.91 1320.5,588.98 1319.52,589.75C1315.18,583.877 1310.85,578.003 1306.52,572.13C1306.12,571.731 1305.97,571.14 1306.14,570.6C1307.37,570.01 1308.61,570.6 1309.85,570.6C1316.52,570.7 1323.19,570.54 1329.85,571.07C1332.37,571.28 1332.42,570.95 1332.58,568.39C1332.68,564.56 1331.78,560.88 1331.9,557.15Z" style="fill:rgb(0,155,254);fill-rule:nonzero;stroke:rgb(0,155,254);stroke-width:0.3px;"/>
            </g>
            <g transform="matrix(1,0,0,1,-382.95,-254.96)">
                <path d="M1319.42,589.71C1320.42,588.94 1321.07,589.87 1321.74,590.24C1326.8,592.96 1331.6,596.1 1336.38,599.24C1337.4,600.01 1338.46,600.722 1339.56,601.37C1342.79,603.01 1345,605.68 1347.05,608.54C1354.52,618.96 1361.99,629.38 1369.46,639.8C1371.78,643.03 1374.14,646.24 1376.46,649.43C1377.12,650.242 1377.5,651.238 1377.57,652.28C1374.72,654.45 1371.48,655.98 1368.47,657.89C1367.04,658.723 1365.7,659.705 1364.47,660.82C1362.84,662.41 1361.29,662.28 1359.83,660.48C1356.77,656.72 1353.73,652.95 1350.71,649.17C1350.57,648.294 1350.72,647.396 1351.13,646.61C1352.08,643.73 1352.94,640.83 1352.49,637.73C1352.77,636.466 1352.53,635.142 1351.84,634.05C1350.83,632.233 1349.7,630.483 1348.47,628.81L1330.04,604.29C1326.43,599.51 1322.83,594.68 1319.42,589.71Z" style="fill:rgb(0,206,254);fill-rule:nonzero;stroke:rgb(0,206,254);stroke-width:0.3px;"/>
            </g>
            <g transform="matrix(1,0,0,1,-382.95,-254.96)">
                <path d="M1331.9,557.15C1331.78,560.88 1332.68,564.56 1332.45,568.31C1332.29,570.87 1332.24,571.2 1329.72,570.99C1323.06,570.46 1316.39,570.62 1309.72,570.52C1308.48,570.52 1307.24,569.97 1306.01,570.52C1305.72,569.04 1306.69,568.31 1307.78,567.75C1309.69,566.75 1311.65,565.88 1313.59,564.96C1318.55,562.6 1323.51,560.24 1328.48,557.88C1329.5,557.249 1330.71,556.99 1331.9,557.15Z" style="fill:rgb(0,206,254);fill-rule:nonzero;stroke:rgb(0,206,254);stroke-width:0.3px;"/>
            </g>
        </g>
    </g>
</svg>
