<?xml version="1.0" encoding="UTF-8" standalone="no"?>
<!DOCTYPE svg PUBLIC "-//W3C//DTD SVG 1.1//EN" "http://www.w3.org/Graphics/SVG/1.1/DTD/svg11.dtd">
<svg width="100%" height="100%" viewBox="0 0 159 158" version="1.1" xmlns="http://www.w3.org/2000/svg" xmlns:xlink="http://www.w3.org/1999/xlink" xml:space="preserve" xmlns:serif="http://www.serif.com/" style="fill-rule:evenodd;clip-rule:evenodd;stroke-linejoin:round;stroke-miterlimit:2;">
    <g transform="matrix(1,0,0,1,-647.884,-210.778)">
        <g id="Cell-2" serif:id="Cell 2">
            <g transform="matrix(1,0,0,1,-382.95,-254.96)">
                <path d="M1099.07,592.68C1098.01,590.68 1098.66,588.62 1098.81,586.6C1099.11,582.33 1099.62,578.07 1100.05,573.8C1100.5,569.3 1101.05,564.8 1101.34,560.28C1101.49,557.57 1100.09,555.28 1098.22,553.36C1097.22,552.29 1095.94,551.36 1094.79,550.43L1078.62,533.62C1078.18,533.16 1077.79,532.62 1077.38,532.19C1077.94,532.179 1078.49,532.253 1079.03,532.41C1086.61,534.54 1094.19,536.68 1101.79,538.73C1106.33,539.95 1110.95,540.93 1114.61,544.2C1114.87,544.386 1115.16,544.534 1115.46,544.64C1115.6,544.705 1115.74,544.789 1115.86,544.89C1119.58,548.71 1123.49,552.34 1127.04,556.36C1130.94,560.76 1135.04,565.02 1139.04,569.36C1142.82,573.447 1146.59,577.547 1150.35,581.66C1155.35,587.14 1160.47,592.47 1165.54,597.87C1166.07,598.44 1166.8,598.87 1166.82,599.81C1166.09,600.27 1165.38,600.81 1164.61,601.18C1156.27,605.36 1147.95,609.58 1139.61,613.68C1136,615.244 1132.94,617.844 1130.81,621.15C1129.45,623.38 1128.04,623.45 1126.22,621.46C1117.43,611.86 1108.01,602.86 1099.49,593.01C1099.32,592.88 1099.19,592.78 1099.07,592.68Z" style="fill:rgb(16,225,254);fill-rule:nonzero;stroke:rgb(16,225,254);stroke-width:0.3px;"/>
            </g>
            <g transform="matrix(1,0,0,1,-382.95,-254.96)">
                <path d="M1071.28,465.94C1073.49,465.62 1075.12,466.83 1076.63,468.15C1079.74,471.024 1082.7,474.055 1085.5,477.23C1111.71,505.23 1137.91,533.25 1164.08,561.29C1172.03,569.81 1180,578.34 1188,586.88C1188.46,587.328 1188.89,587.805 1189.28,588.31C1189.53,588.597 1189.66,588.963 1189.66,589.341C1189.66,590.111 1189.1,590.775 1188.34,590.9C1187.95,590.987 1187.55,591.024 1187.15,591.01C1185.47,591.108 1183.83,591.561 1182.34,592.34C1179.09,593.86 1175.99,595.67 1172.64,596.99C1169.34,592.79 1165.45,589.11 1161.89,585.13C1158.33,581.15 1154.83,577.33 1151.23,573.49C1145.99,567.9 1140.66,562.41 1135.5,556.74C1133.4,554.45 1131.21,552.24 1129.09,549.96C1124.16,544.64 1119.4,539.17 1114.48,533.84C1111.34,530.44 1108.29,526.97 1105.15,523.58C1101.53,519.65 1098.04,515.58 1094.3,511.79C1089.65,507.07 1085.23,502.12 1080.53,497.44C1079.11,496.03 1078.07,494.31 1076.59,492.95C1076.03,492.271 1075.68,491.438 1075.59,490.56C1074.29,485.15 1073.44,479.66 1072.4,474.2C1071.85,471.48 1070.89,468.79 1071.28,465.94Z" style="fill:rgb(16,180,254);fill-rule:nonzero;stroke:rgb(16,180,254);stroke-width:0.3px;"/>
            </g>
            <g transform="matrix(1,0,0,1,-382.95,-254.96)">
                <path d="M1071.28,465.94C1070.89,468.79 1071.85,471.48 1072.37,474.2C1073.37,479.66 1074.26,485.15 1075.56,490.56C1075.65,491.438 1076,492.271 1076.56,492.95C1078.04,494.31 1079.08,496.03 1080.5,497.44C1085.2,502.12 1089.62,507.07 1094.27,511.79C1098.01,515.59 1101.5,519.65 1105.12,523.58C1108.26,526.97 1111.31,530.44 1114.45,533.84C1119.37,539.17 1124.13,544.64 1129.06,549.96C1131.18,552.24 1133.37,554.45 1135.47,556.74C1140.63,562.41 1145.96,567.9 1151.2,573.49C1154.8,577.33 1158.35,581.21 1161.86,585.13C1165.42,589.13 1169.31,592.79 1172.61,596.99C1170.85,598.233 1168.89,599.179 1166.82,599.79C1166.82,598.87 1166.07,598.42 1165.54,597.85C1160.47,592.45 1155.33,587.12 1150.35,581.64C1146.6,577.52 1142.83,573.42 1139.04,569.34C1135.04,565.02 1130.96,560.76 1127.04,556.34C1123.49,552.34 1119.58,548.69 1115.86,544.87C1115.74,544.769 1115.6,544.685 1115.46,544.62C1115.51,543.811 1115.16,543.028 1114.54,542.51C1110.54,538.51 1106.78,534.29 1103.02,530.08C1100.1,526.81 1097.02,523.7 1094.02,520.52C1093.8,520.29 1093.56,520.08 1093.35,519.83C1089.03,514.62 1084.14,509.93 1079.71,504.83C1078.06,502.996 1076.24,501.322 1074.28,499.83C1071.1,497.32 1067.85,495.1 1063.57,495.21C1062.85,495.179 1062.15,495.016 1061.49,494.73C1059.46,493.984 1057.31,493.645 1055.15,493.73C1054.43,493.805 1053.71,493.805 1053,493.73C1048.43,493.132 1043.83,492.818 1039.22,492.79C1036.75,490.3 1034.22,487.84 1031.83,485.31C1030.53,483.95 1030.75,482.53 1032.34,481.56C1032.98,481.224 1033.65,480.94 1034.34,480.71C1044.77,476.31 1055.21,471.92 1065.65,467.54C1067.41,466.77 1069.18,465.75 1071.28,465.94Z" style="fill:rgb(41,198,254);fill-rule:nonzero;stroke:rgb(41,198,254);stroke-width:0.3px;"/>
            </g>
            <g transform="matrix(1,0,0,1,-382.95,-254.96)">
                <path d="M1039.19,492.78C1043.8,492.808 1048.4,493.122 1052.97,493.72C1053.68,493.795 1054.4,493.795 1055.12,493.72C1057.28,493.635 1059.43,493.974 1061.46,494.72C1062.12,495.006 1062.82,495.169 1063.54,495.2C1067.82,495.09 1071.07,497.31 1074.25,499.82C1076.21,501.312 1078.03,502.986 1079.68,504.82C1084.11,509.93 1089,514.62 1093.32,519.82C1093.53,520.07 1093.77,520.28 1093.99,520.51C1096.99,523.69 1100.1,526.8 1102.99,530.07C1106.75,534.28 1110.53,538.49 1114.51,542.5C1115.13,543.018 1115.48,543.801 1115.43,544.61C1115.13,544.504 1114.84,544.356 1114.58,544.17C1110.92,540.9 1106.3,539.92 1101.76,538.7C1094.16,536.65 1086.58,534.51 1079,532.38C1078.46,532.223 1077.91,532.149 1077.35,532.16C1074.53,529.68 1072.05,526.86 1069.44,524.16C1059.56,514.02 1049.71,503.857 1039.89,493.67C1039.64,493.385 1039.41,493.088 1039.19,492.78Z" style="fill:rgb(16,180,254);fill-rule:nonzero;stroke:rgb(16,180,254);stroke-width:0.3px;"/>
            </g>
        </g>
    </g>
</svg>
