<?xml version="1.0" encoding="UTF-8" standalone="no"?>
<!DOCTYPE svg PUBLIC "-//W3C//DTD SVG 1.1//EN" "http://www.w3.org/Graphics/SVG/1.1/DTD/svg11.dtd">
<svg width="100%" height="100%" viewBox="0 0 584 74" version="1.1" xmlns="http://www.w3.org/2000/svg" xmlns:xlink="http://www.w3.org/1999/xlink" xml:space="preserve" xmlns:serif="http://www.serif.com/" style="fill-rule:evenodd;clip-rule:evenodd;stroke-linejoin:round;stroke-miterlimit:2;">
    <g transform="matrix(1,0,0,1,-581.623,-425.029)">
        <g id="Speed" transform="matrix(1,0,0,1,-382.95,-254.96)">
            <path d="M1547.7,690.26C1544.2,690.41 1540.7,690.96 1537.27,691.35L1496.63,695.93C1488.39,696.87 1480.15,697.823 1471.92,698.79C1462.92,699.84 1454.03,700.93 1445.08,701.96C1437.39,702.85 1429.69,703.67 1422,704.55C1413,705.55 1403.94,706.66 1394.91,707.7C1389.12,708.367 1383.33,709.033 1377.54,709.7L1347.33,713.15L1315,716.83C1306,717.83 1297.06,718.83 1288.1,719.83C1277.55,721.05 1267,722.31 1256.45,723.53C1248.75,724.42 1241.05,725.24 1233.35,726.12C1223.35,727.273 1213.35,728.427 1203.35,729.58C1193.9,730.67 1184.45,731.72 1175,732.8L1140.71,736.75C1131.18,737.85 1121.65,738.937 1112.12,740.01C1100.45,741.343 1088.79,742.697 1077.12,744.07C1067.91,745.13 1058.69,746.15 1049.48,747.21C1037.72,748.543 1025.97,749.903 1014.22,751.29C1008.34,751.97 1002.46,752.61 996.59,753.29C995.068,753.558 993.518,752.946 992.59,751.71C983.74,741.6 974.82,731.54 965.93,721.47C965.608,721.116 965.304,720.746 965.02,720.36C964.26,719.3 964.44,718.84 965.79,718.72C969.3,718.41 972.79,718.16 976.32,717.92L1024.67,714.63C1037.83,713.75 1050.99,712.877 1064.16,712.01C1074.77,711.29 1085.38,710.51 1095.99,709.78C1103.99,709.23 1112.1,708.78 1120.16,708.18C1131.01,707.45 1141.86,706.68 1152.71,705.95L1191.71,703.37C1201.36,702.72 1211.02,702.09 1220.71,701.37C1231.23,700.64 1241.71,699.84 1252.28,699.12C1262.85,698.4 1273.5,697.78 1284.1,697.06C1294.7,696.34 1305.1,695.54 1315.67,694.81C1321.41,694.42 1327.15,694.12 1332.89,693.73C1338.63,693.34 1344.37,692.85 1350.11,692.45C1353.85,692.19 1357.61,692.02 1361.36,691.77C1367.17,691.38 1372.99,690.93 1378.8,690.53C1384.38,690.15 1389.97,689.81 1395.55,689.42C1401.55,689.01 1407.55,688.56 1413.47,688.14C1417.06,687.9 1420.65,687.71 1424.24,687.47C1430.37,687.05 1436.51,686.59 1442.64,686.18C1448.3,685.8 1453.97,685.55 1459.64,685.08C1465.12,684.62 1470.64,684.55 1476.09,683.83C1480.55,683.6 1485.02,683.57 1489.45,683.1C1495.07,682.51 1500.73,682.43 1506.35,681.85C1509.83,681.49 1513.35,681.44 1516.83,681.2C1521.91,680.86 1527,680.58 1532.06,680.09C1534.44,679.722 1536.87,680.372 1538.74,681.88C1541.27,683.94 1544.03,685.72 1546.68,687.64C1547.2,688.002 1547.69,688.406 1548.15,688.85C1548.65,689.58 1548.31,690 1547.7,690.26Z" style="fill:rgb(255,115,2);fill-rule:nonzero;"/>
        </g>
    </g>
</svg>
